<?xml version="1.0" standalone="no"?>
<!DOCTYPE svg PUBLIC "-//W3C//DTD SVG 20010904//EN"
 "http://www.w3.org/TR/2001/REC-SVG-20010904/DTD/svg10.dtd">
<svg version="1.0" xmlns="http://www.w3.org/2000/svg"
 width="736.000000pt" height="491.000000pt" viewBox="0 0 736.000000 491.000000"
 preserveAspectRatio="xMidYMid meet">
<metadata>
Created by potrace 1.16, written by Peter Selinger 2001-2019
</metadata>
<g transform="translate(0.000000,491.000000) scale(0.100000,-0.100000)"
fill="#000000" stroke="none">
<path d="M2622 4843 c13 -46 21 -107 23 -188 3 -105 0 -134 -26 -238 -32 -130
-92 -260 -162 -349 -41 -52 -75 -88 -85 -88 -5 0 7 16 65 86 24 28 43 58 43
65 0 8 9 21 19 29 11 7 18 17 15 22 -3 4 0 8 7 8 7 0 9 3 6 7 -4 3 3 21 14 40
11 18 17 33 14 33 -4 0 -2 6 4 13 6 8 9 16 6 18 -2 3 4 32 14 65 18 60 18 61
-3 70 -11 5 -22 17 -24 28 -2 10 0 16 5 13 5 -3 9 4 9 16 -1 12 4 21 10 20 17
-3 12 80 -6 84 -11 4 -12 2 -2 -5 7 -5 10 -16 6 -25 -11 -29 -19 -19 -22 26
-6 99 -17 90 -18 -16 -1 -163 -46 -315 -133 -441 -36 -52 -36 -53 -13 -60 12
-3 11 -4 -4 -3 -14 1 -45 -21 -90 -63 -38 -36 -94 -81 -124 -101 -70 -46 -202
-104 -258 -114 -44 -7 -66 -33 -55 -62 3 -7 -6 -17 -18 -22 -15 -6 -18 -10 -9
-12 40 -4 -76 -18 -161 -18 -182 -2 -373 57 -512 155 -26 19 -49 34 -51 34
-12 0 -176 173 -176 186 0 8 -5 14 -11 14 -5 0 -7 5 -4 10 3 6 2 10 -4 10 -5
0 -19 21 -31 48 -12 26 -28 59 -36 74 -8 15 -14 29 -14 30 1 3 -3 19 -19 63
l-11 30 6 -35 c20 -114 112 -282 212 -383 175 -179 383 -264 669 -274 84 -3
150 -9 148 -13 -3 -4 9 -10 26 -14 29 -5 30 -7 23 -43 -3 -21 -15 -52 -25 -69
-22 -37 -24 -48 -6 -41 19 7 107 -12 107 -24 0 -16 20 -10 27 9 11 29 27 32
49 11 l22 -20 -34 -65 c-18 -35 -32 -66 -31 -69 1 -2 -6 -13 -15 -24 -9 -11
-14 -22 -11 -24 2 -3 -7 -23 -21 -44 -14 -20 -26 -44 -26 -51 0 -21 -37 -64
-45 -52 -3 5 -11 10 -17 10 -6 0 -6 -6 2 -15 7 -9 10 -19 6 -22 -13 -13 -25
21 -21 61 2 21 9 42 16 46 6 4 8 13 5 19 -10 16 -26 13 -26 -5 0 -8 -11 -30
-25 -48 -14 -18 -25 -38 -25 -43 0 -23 -25 -32 -45 -16 -19 15 -19 15 10 9 25
-5 22 -2 -15 17 -33 17 -44 28 -42 42 1 11 -12 -6 -29 -39 -17 -32 -28 -65
-25 -73 3 -8 2 -12 -2 -9 -5 3 -16 -8 -25 -24 -16 -27 -16 -28 1 -23 10 2 28
-5 41 -16 13 -12 30 -21 38 -21 7 0 13 -4 13 -9 0 -14 -42 -21 -62 -10 -30 16
-34 2 -7 -20 30 -26 19 -26 -31 -2 -31 15 -40 16 -44 5 -5 -14 1 -20 44 -42
l25 -12 -25 6 c-49 11 -64 9 -68 -10 -2 -10 0 -16 6 -12 5 3 22 -7 38 -22 15
-15 24 -21 20 -14 -10 17 9 15 23 -2 9 -11 8 -17 -3 -29 -8 -8 -12 -17 -9 -21
4 -3 3 -6 -2 -6 -4 0 -17 11 -29 24 -11 14 -34 28 -50 32 -27 6 -29 5 -24 -20
4 -18 1 -26 -8 -26 -29 0 -12 -16 36 -35 53 -21 57 -24 39 -42 -14 -14 -39 -6
-35 10 1 7 1 9 -1 5 -5 -8 -44 11 -54 26 -8 10 -29 -26 -28 -46 0 -7 5 -2 11
12 10 24 10 24 18 5 5 -11 9 -14 9 -6 1 10 7 7 20 -7 10 -12 21 -19 24 -15 16
16 15 -27 -1 -60 l-18 -37 -40 34 c-31 26 -44 32 -53 23 -18 -18 -14 -22 39
-46 l50 -23 -19 -26 c-10 -15 -20 -31 -21 -37 -2 -13 -24 -8 -66 15 -33 19
-34 19 -44 0 -6 -11 -9 -24 -6 -28 2 -4 -7 -9 -22 -10 -14 -1 -31 -7 -37 -13
-7 -8 -4 -10 10 -7 23 3 23 2 -6 -74 -30 -81 -22 -110 51 -176 56 -50 318
-196 570 -316 47 -22 249 -122 450 -222 201 -99 448 -221 550 -270 413 -198
721 -355 726 -369 4 -8 17 -15 30 -15 28 0 170 -72 196 -100 10 -11 25 -20 32
-20 8 0 16 -10 20 -22 5 -19 8 -20 15 -9 8 13 12 13 27 0 9 -8 25 -13 35 -11
10 2 80 -27 156 -64 76 -36 190 -91 253 -121 63 -31 126 -63 140 -73 17 -12
54 -20 110 -25 l85 -7 -125 62 c-69 34 -179 88 -245 120 -66 32 -230 111 -365
177 -135 66 -306 148 -380 183 -74 34 -154 75 -177 91 -24 15 -64 35 -90 44
-59 20 -1354 668 -1633 817 -47 25 -94 49 -106 52 -24 7 -213 110 -231 125 -7
6 -17 11 -23 11 -5 0 -10 5 -10 11 0 5 -4 8 -9 5 -4 -3 -18 2 -29 12 -24 21
-40 72 -22 72 6 0 8 6 5 13 -4 6 -1 5 7 -3 19 -23 82 -50 115 -50 l28 1 -30
25 c-17 15 -22 24 -12 20 9 -3 17 -1 17 4 0 6 5 10 11 10 5 0 8 -4 5 -8 -2 -4
4 -13 14 -20 22 -14 39 3 21 21 -16 16 -14 27 7 27 9 0 32 -14 50 -31 18 -17
36 -29 38 -26 3 3 31 -8 62 -24 31 -16 62 -29 69 -29 6 0 105 -45 220 -101
114 -55 222 -106 238 -114 17 -7 131 -63 255 -123 301 -148 502 -243 518 -246
7 -1 27 -14 43 -29 17 -15 40 -27 50 -27 17 0 56 -18 254 -119 91 -46 221
-103 210 -93 -11 11 -321 167 -408 206 -31 14 -57 22 -57 18 0 -4 -4 -2 -8 5
-7 12 -262 141 -857 433 -165 81 -338 170 -385 196 -47 27 -113 63 -147 79
-67 31 -89 56 -25 29 84 -37 101 -29 22 11 -51 26 -62 41 -35 51 8 4 13 10 10
14 -6 9 33 90 43 90 17 -1 126 -67 130 -79 3 -9 -2 -11 -14 -8 -85 26 -92 19
-37 -38 24 -25 33 -40 25 -43 -8 -2 -1 -13 19 -28 37 -27 28 -31 -24 -9 -45
19 -63 20 -45 2 25 -24 83 -55 118 -62 19 -4 46 -15 60 -25 34 -24 147 -80
160 -80 6 0 8 5 4 11 -4 8 1 9 17 4 22 -7 23 -7 9 10 -14 17 -13 18 7 13 16
-4 20 -2 16 8 -6 15 3 17 80 15 29 0 46 3 42 9 -8 13 -2 13 44 -6 22 -8 75
-17 118 -18 43 -1 93 -5 112 -9 30 -6 32 -5 16 7 -16 12 -15 13 13 11 26 -1
30 1 20 12 -9 11 -8 17 3 29 13 13 29 7 135 -45 65 -32 140 -69 167 -81 32
-15 47 -28 47 -41 0 -10 5 -19 12 -19 6 0 9 -2 6 -5 -3 -3 -19 1 -37 8 -17 7
-29 16 -25 19 3 4 -4 4 -17 1 -15 -4 -20 -3 -15 5 5 8 1 10 -10 5 -12 -4 -15
-3 -10 5 5 8 1 10 -10 5 -12 -4 -15 -3 -10 5 5 8 1 10 -10 5 -13 -5 -15 -3 -9
7 5 9 4 11 -3 6 -6 -4 -28 2 -49 12 -55 28 -113 52 -113 46 0 -3 31 -20 70
-38 38 -18 66 -37 62 -40 -3 -4 2 -4 12 0 14 5 17 4 12 -4 -4 -7 -1 -12 8 -12
8 0 27 -5 41 -12 19 -8 22 -14 13 -20 -9 -5 -4 -7 12 -6 14 2 24 -2 23 -8 -1
-7 5 -11 15 -10 10 0 16 -5 14 -13 -2 -9 3 -11 15 -7 9 4 14 4 10 0 -4 -4 1
-13 11 -21 16 -12 15 -13 -3 -6 -11 4 -44 19 -73 34 -29 15 -55 23 -58 18 -3
-5 7 -14 23 -20 86 -32 178 -93 167 -110 -3 -5 1 -9 9 -9 8 0 21 -8 28 -17 12
-15 12 -16 -6 -9 -11 5 -33 13 -50 19 -16 5 -38 14 -49 19 -12 7 -22 6 -30 -3
-8 -9 -8 -10 2 -5 6 4 12 3 12 -2 0 -5 12 -14 26 -21 15 -6 24 -14 21 -17 -3
-3 -15 0 -27 6 -11 6 -26 9 -33 7 -7 -2 57 -38 142 -80 159 -79 206 -96 101
-37 -69 39 -73 53 -6 20 25 -12 50 -19 56 -15 5 3 10 2 10 -2 0 -4 28 -18 63
-31 61 -22 163 -79 155 -87 -2 -3 -23 5 -46 17 -69 33 -57 16 26 -39 47 -30
97 -55 127 -61 59 -13 67 -9 28 12 -36 19 -13 21 33 1 19 -8 32 -10 29 -5 -9
15 -1 13 57 -14 29 -14 60 -26 68 -27 28 -3 41 1 35 11 -3 5 -2 10 4 10 6 0
15 -9 21 -20 7 -12 21 -20 38 -20 15 0 51 -9 80 -20 52 -20 67 -18 35 5 -14
11 -12 12 14 11 17 0 29 -5 26 -10 -3 -4 5 -5 17 -1 13 4 20 3 17 -2 -3 -5 3
-9 13 -9 25 0 17 11 -20 26 -28 11 -33 37 -5 26 11 -4 60 30 103 71 15 15 48
17 56 4 6 -9 46 -22 46 -15 0 2 -15 11 -32 20 -18 9 -34 18 -36 19 -2 1 7 21
19 44 24 47 22 47 128 0 67 -30 110 -40 53 -12 -40 20 -35 26 23 28 32 1 41
-2 35 -11 -11 -12 -3 -24 14 -24 6 0 4 5 -4 10 -40 26 10 4 126 -56 129 -66
214 -104 182 -81 -15 10 -15 12 10 23 l27 11 -48 29 c-88 52 -84 47 -62 89 38
69 70 99 126 115 42 12 54 20 53 35 -3 60 -4 64 -19 59 -8 -4 -22 0 -31 7 -14
11 -13 14 8 23 12 5 25 9 28 9 3 -1 11 5 18 13 10 11 10 14 0 14 -8 0 -7 5 4
16 14 14 21 15 54 3 22 -7 51 -12 66 -10 24 2 27 -1 33 -43 4 -25 13 -53 19
-62 18 -24 127 -30 179 -9 28 11 42 13 47 5 5 -8 10 -7 18 2 7 10 8 56 0 163
-5 83 -8 180 -5 217 3 44 0 69 -7 72 -7 3 -7 5 2 5 23 2 12 37 -19 60 -35 26
-81 23 -120 -8 -13 -10 -30 -16 -38 -13 -10 3 -12 -3 -7 -24 7 -36 -7 -131
-22 -146 -9 -9 -24 -3 -57 21 -26 18 -49 31 -52 28 -3 -3 -17 -1 -32 5 -44 17
-65 18 -74 5 -6 -8 -7 -6 -3 6 4 11 0 17 -12 17 -9 1 -30 7 -47 14 -28 12 -27
12 28 10 45 -1 64 -7 83 -25 13 -12 24 -18 24 -12 0 5 -9 18 -20 28 -14 13
-17 22 -10 30 6 7 17 36 26 65 12 41 19 50 32 45 15 -5 15 -4 0 12 -9 10 -17
21 -18 25 -5 40 -14 67 -21 62 -5 -3 -9 -1 -9 5 0 5 9 12 19 16 11 3 25 13 33
22 11 14 10 15 -12 8 -14 -4 -31 -10 -37 -12 -8 -3 -13 3 -13 15 0 21 18 32
51 32 10 0 19 5 19 10 0 6 10 10 23 10 l22 0 -25 20 c-24 20 -25 21 -6 35 11
8 16 15 10 15 -5 0 -1 5 8 11 10 5 18 18 18 27 -1 16 -1 16 -11 0 -6 -11 -22
-18 -39 -18 -32 0 -46 24 -41 73 3 29 -7 37 -54 40 -16 1 -30 9 -32 17 -4 13
-3 13 7 0 8 -11 13 -12 16 -3 3 7 12 9 20 6 8 -3 20 0 28 6 7 6 16 8 20 4 4
-4 4 1 0 11 -5 13 -9 14 -15 5 -6 -10 -10 -10 -23 0 -9 7 -21 9 -28 5 -7 -5
-20 -9 -28 -11 -12 -1 -12 1 2 11 15 11 15 13 -2 24 -15 9 -22 8 -35 -5 -14
-14 -18 -14 -26 -2 -7 12 -9 11 -9 -2 0 -9 -7 -22 -15 -29 -9 -7 -13 -21 -10
-31 7 -21 -12 -36 -27 -21 -8 8 -6 18 6 36 13 21 14 24 1 20 -8 -4 -15 -2 -15
2 1 16 27 44 41 44 12 0 12 2 0 9 -11 7 -11 15 -2 42 18 52 46 80 74 75 19 -3
27 2 36 20 11 25 41 33 42 12 0 -7 5 -3 11 9 9 18 6 28 -18 60 -16 21 -34 47
-40 58 -7 11 -20 19 -30 17 -83 -12 -102 -17 -121 -30 -15 -9 -35 -12 -57 -8
-22 4 -37 2 -42 -5 -5 -9 -2 -10 10 -6 10 4 15 3 11 -4 -4 -5 -16 -7 -28 -3
-55 17 -53 17 -37 5 12 -8 12 -12 2 -21 -6 -5 -10 -7 -7 -3 7 8 -55 37 -74 34
-7 -1 -10 2 -6 8 7 13 3 14 -20 5 -13 -5 -14 -8 -3 -15 9 -6 6 -9 -12 -9 -24
0 -24 -1 8 -20 30 -19 32 -22 17 -36 -12 -12 -13 -19 -4 -30 9 -11 8 -14 -5
-14 -10 0 -14 -4 -11 -10 9 -15 -12 -12 -46 6 -17 8 -33 13 -36 11 -2 -3 6
-11 18 -18 13 -6 31 -20 42 -29 18 -18 18 -18 -7 -16 -14 0 -26 5 -26 10 0 4
-6 6 -14 3 -7 -3 -20 3 -29 14 -9 10 -27 19 -39 19 -13 0 -47 11 -77 25 -30
14 -56 23 -60 20 -3 -3 5 -8 17 -12 12 -3 22 -10 22 -15 0 -5 4 -7 9 -3 6 3
14 -3 20 -12 6 -10 11 -14 11 -10 0 4 10 -1 21 -12 12 -11 34 -23 48 -26 37
-8 93 -43 87 -54 -3 -5 1 -12 10 -15 9 -4 14 -9 11 -13 -4 -3 -12 -1 -19 4 -7
6 -38 19 -68 29 -30 10 -57 21 -60 25 -9 11 -121 62 -125 57 -3 -3 6 -11 20
-18 14 -7 25 -17 25 -22 0 -5 4 -7 8 -4 5 3 21 -3 36 -13 22 -15 24 -20 12
-24 -23 -9 -48 3 -42 20 3 8 2 11 -3 8 -6 -3 -25 3 -45 14 -19 11 -36 17 -39
13 -2 -4 -2 -2 -1 5 2 7 -1 15 -6 18 -6 4 -10 11 -10 17 0 6 7 5 17 -3 9 -8
14 -9 10 -2 -4 7 1 14 14 18 17 6 19 9 8 16 -19 12 -32 11 -24 -1 3 -5 1 -10
-4 -10 -6 0 -11 7 -11 15 0 8 -9 15 -20 15 -11 0 -20 -7 -20 -15 0 -8 5 -15
10 -15 6 0 10 -4 10 -10 0 -5 -7 -10 -15 -10 -8 0 -14 3 -14 8 4 27 -3 42 -21
42 -26 0 -77 -26 -83 -42 -4 -11 -6 -11 -6 0 -1 7 -24 -5 -52 -28 -28 -22 -55
-37 -60 -34 -14 8 0 24 21 24 10 0 28 13 38 28 11 15 36 34 56 42 20 7 36 18
36 23 0 4 10 6 23 2 20 -5 20 -5 5 8 -15 12 -15 14 0 24 9 6 14 14 10 18 -4 4
-14 2 -22 -5 -17 -14 -29 -6 -60 43 -12 17 -14 27 -7 27 7 0 9 5 6 10 -10 16
8 11 35 -10 14 -11 31 -20 38 -20 7 0 11 -4 7 -9 -3 -5 0 -13 6 -17 8 -4 9 -3
5 4 -10 16 2 14 43 -6 19 -9 37 -23 39 -30 3 -11 0 -12 -19 -2 -23 11 -23 10
-4 -5 21 -17 42 -15 37 4 -1 8 3 9 15 3 10 -5 30 -8 45 -7 15 1 25 -3 22 -9
-2 -6 22 -22 53 -36 75 -33 82 -35 58 -17 -20 15 -20 16 3 36 l24 20 -20 22
c-20 20 -42 19 -42 -2 0 -6 4 -8 9 -4 5 3 12 1 16 -5 4 -6 -5 -10 -19 -10 -29
0 -35 -15 -10 -24 9 -4 15 -9 12 -12 -13 -12 -60 22 -65 48 -5 24 -8 26 -25
17 -15 -8 -19 -8 -14 0 4 6 3 11 -3 11 -5 0 -13 -4 -16 -10 -3 -5 -11 -10 -17
-10 -6 0 -3 9 7 20 17 19 16 19 -22 17 -27 -1 -62 10 -114 35 -41 20 -100 48
-132 62 -50 23 -60 32 -78 73 -11 25 -18 52 -15 59 3 7 -4 16 -15 19 -10 4
-19 13 -19 21 0 8 -4 14 -8 14 -5 0 -14 16 -22 35 -8 19 -19 35 -25 35 -6 0
-16 21 -21 47 -8 44 -12 49 -57 67 -50 21 -65 16 -72 -20 -1 -11 -9 -17 -16
-15 -8 2 -24 4 -36 4 -22 -1 -22 0 -8 33 13 32 13 34 -15 54 -19 14 -30 16
-32 8 -3 -7 -11 -9 -24 -4 -13 6 -15 10 -6 13 10 4 8 9 -7 20 -21 14 -67 91
-63 105 1 4 -9 16 -23 26 -13 11 -22 21 -20 24 3 3 -14 25 -37 49 -23 24 -43
49 -43 54 0 6 -9 22 -18 37 -10 14 -17 35 -15 45 3 19 -12 21 -77 12 -25 -3
-30 0 -31 17 -2 31 -12 43 -32 38 -13 -4 -30 21 -77 117 -33 67 -61 115 -63
106 -2 -9 2 -25 8 -36 7 -14 7 -21 0 -21 -5 0 -10 -4 -10 -10 0 -5 7 -10 15
-10 20 0 35 -39 42 -109 9 -97 6 -134 -21 -211 -14 -41 -26 -94 -26 -117 0
-48 -11 -59 -41 -43 -11 7 -23 9 -27 6 -3 -4 9 -12 26 -18 18 -7 30 -18 28
-24 -2 -6 1 -17 7 -23 8 -8 8 -11 0 -11 -7 0 -15 5 -18 10 -4 6 -12 7 -18 3
-8 -4 -8 -2 1 9 10 13 10 17 -4 22 -9 4 -19 4 -22 1 -3 -3 0 -5 7 -5 7 0 10
-4 6 -10 -6 -10 -55 8 -55 21 0 5 -7 5 -17 2 -10 -4 -14 -2 -10 4 4 6 -11 15
-38 22 -25 6 -45 16 -45 22 0 5 -6 9 -13 7 -16 -4 -107 52 -107 65 0 6 5 5 13
0 16 -13 106 -43 126 -43 9 1 -1 10 -21 21 -43 22 -48 29 -15 23 l22 -5 -22
12 c-13 7 -23 16 -23 21 0 5 14 1 31 -7 17 -9 33 -14 36 -11 3 2 -12 14 -34
25 -21 11 -33 20 -26 21 6 0 20 3 30 6 15 5 16 4 3 -6 -12 -9 -12 -11 -1 -8
20 6 22 36 3 47 -15 8 -14 11 8 19 l25 9 -24 8 c-17 5 -20 9 -11 15 9 6 5 13
-16 24 -24 14 -25 16 -5 10 17 -4 21 -3 16 6 -5 8 -4 11 3 6 6 -3 13 -2 17 4
3 6 -1 13 -9 16 -9 3 -14 9 -11 14 2 4 -8 13 -23 20 -25 12 -26 13 -7 21 11 4
14 8 7 8 -9 1 -12 13 -8 40 6 58 11 62 52 45 20 -8 38 -13 41 -11 2 3 -11 10
-29 16 -25 8 -34 17 -36 37 -2 22 1 24 21 19 17 -5 18 -4 7 4 -18 12 -18 12
53 36 76 24 80 33 10 24 -31 -4 -60 -6 -64 -3 -10 6 -11 234 -1 234 5 0 33
-10 63 -22 54 -23 54 -23 53 -66 0 -23 -4 -45 -7 -48 -4 -4 5 -20 19 -37 20
-24 22 -32 12 -45 -11 -13 -10 -14 9 -4 18 10 24 9 33 -5 9 -15 10 -12 5 12
-4 17 -8 53 -10 80 -4 78 -17 99 -74 124 -28 12 -64 24 -80 27 -16 4 -32 12
-35 20 -3 9 0 11 11 7 11 -5 10 0 -5 15 -12 12 -22 30 -22 40 0 30 -33 112
-46 112 -8 0 -5 -21 8 -67z m-295 -1159 c56 -19 279 -128 340 -167 24 -15 45
-27 48 -27 18 0 138 -67 146 -82 7 -14 6 -16 -6 -12 -8 3 -12 10 -9 15 7 12
-3 11 -25 -1 -20 -10 -105 25 -96 40 3 5 0 12 -6 16 -8 4 -9 3 -5 -4 4 -7 2
-12 -6 -11 -18 1 -85 27 -73 28 6 1 3 6 -5 11 -12 8 -13 12 -2 19 11 6 9 10
-7 14 -12 3 -21 0 -21 -5 0 -7 -4 -7 -12 0 -7 5 -35 17 -63 25 -27 8 -59 18
-70 22 -11 4 -5 -2 13 -14 24 -16 32 -28 32 -50 0 -24 7 -32 40 -48 50 -23 51
-33 3 -26 l-38 5 40 -26 c22 -14 35 -26 28 -26 -6 0 -14 4 -17 9 -3 5 -16 11
-28 14 -13 2 -32 8 -43 12 -11 4 8 -10 43 -30 65 -38 75 -46 42 -38 -31 8 -24
-14 10 -31 17 -8 28 -10 25 -5 -4 5 0 9 7 9 9 0 9 3 -2 10 -23 15 -4 12 37 -5
l36 -15 -38 -20 c-32 -16 -40 -17 -49 -6 -6 8 -23 21 -38 31 l-27 17 12 -25
c6 -13 25 -29 41 -36 27 -10 29 -12 15 -26 -14 -14 -21 -12 -71 14 -31 17 -58
28 -60 25 -3 -2 -22 3 -44 11 -34 13 -36 14 -19 1 11 -9 25 -19 30 -24 6 -5
17 -6 24 -4 8 3 11 0 7 -6 -3 -5 19 -20 52 -33 156 -62 259 -172 296 -314 64
-242 -74 -494 -313 -575 -118 -39 -300 -19 -400 45 -85 54 -157 147 -187 243
-18 55 -28 242 -14 242 6 0 10 8 10 18 0 9 13 45 29 78 l29 61 -22 19 c-11 10
-24 18 -28 16 -11 -3 -10 17 4 56 11 28 16 33 38 29 23 -5 23 -4 6 8 -17 13
-14 22 51 147 62 120 71 133 93 131 21 -2 22 -1 8 7 -13 8 -15 17 -8 39 20 70
51 103 89 94 15 -4 22 -2 18 4 -8 13 9 21 45 19 19 -1 24 2 17 10 -5 6 -5 14
-1 18 4 4 3 6 -3 4 -15 -4 -75 23 -75 34 0 6 13 7 32 2 28 -6 31 -5 20 8 -25
31 5 35 75 12z m1003 6 c0 -5 6 -7 14 -4 11 4 13 -2 9 -27 -3 -20 0 -35 9 -41
10 -8 9 -9 -4 -5 -9 4 -19 -1 -22 -10 -4 -9 -14 -13 -25 -10 -15 3 -21 -2 -26
-21 -4 -17 -2 -28 5 -30 7 -3 1 -9 -12 -16 -12 -6 -24 -20 -26 -31 -2 -12 0
-16 5 -9 12 16 42 24 48 14 4 -7 13 -6 25 0 10 5 28 10 40 10 25 0 17 -10 -38
-49 -18 -12 -30 -26 -27 -31 3 -4 -2 -13 -10 -20 -8 -7 -13 -15 -11 -19 3 -4
-4 -8 -15 -8 -24 -2 -35 37 -19 66 6 12 7 21 1 21 -5 0 -16 3 -25 6 -10 4 -16
1 -16 -10 0 -9 -6 -13 -14 -10 -9 4 -12 14 -9 27 3 12 6 38 7 57 1 24 6 36 19
38 9 2 17 10 17 19 0 11 6 14 25 9 30 -8 34 10 8 31 -10 7 -13 13 -8 12 29 -4
43 4 49 26 6 24 26 36 26 15z m346 -225 c-3 -22 0 -24 30 -23 19 1 37 -1 40
-4 6 -7 14 -59 19 -128 1 -25 4 -45 5 -45 1 0 2 -15 3 -33 2 -31 0 -33 -25
-28 -18 4 -28 1 -28 -7 -1 -6 -7 -1 -15 13 l-14 25 -1 -27 c0 -14 -6 -28 -12
-31 -7 -2 -11 -7 -8 -10 3 -3 24 0 45 8 22 8 55 14 74 15 20 0 39 7 47 17 7
10 16 14 21 9 4 -5 2 -11 -5 -13 -6 -3 -10 -9 -6 -14 3 -5 -10 -9 -28 -9 -29
0 -36 -5 -50 -36 l-16 -36 46 5 c26 3 38 3 27 0 -11 -3 -49 -18 -84 -34 -53
-25 -69 -28 -90 -19 -25 10 -25 10 7 7 17 -2 32 -1 32 3 0 4 11 12 25 18 15 7
25 20 25 32 0 11 6 20 13 20 8 0 7 4 -3 10 -13 8 -12 10 4 10 11 0 16 3 13 6
-4 4 -27 1 -52 -6 -32 -9 -42 -16 -33 -21 10 -7 10 -9 -2 -9 -13 0 -13 -1 0
-10 21 -13 6 -12 -25 2 -27 12 -31 23 -13 34 6 4 8 3 4 -4 -3 -6 -3 -13 2 -16
4 -2 9 4 9 15 1 15 -3 19 -17 14 -11 -3 -28 -1 -40 5 -12 6 -20 7 -20 1 0 -5
6 -11 13 -14 19 -7 -21 -34 -77 -51 -66 -20 -110 -4 -119 44 -8 38 2 49 62 72
30 12 49 14 60 8 13 -8 12 -9 -7 -10 -29 0 -85 -38 -77 -51 10 -15 25 -10 25
9 0 13 2 14 9 4 4 -7 14 -12 22 -10 9 2 13 -5 12 -19 -2 -13 0 -23 3 -23 13 0
34 30 34 51 0 19 4 21 30 15 18 -3 29 -2 25 3 -3 5 10 19 29 31 19 11 36 26
39 33 3 9 8 8 22 -3 17 -14 18 -13 13 16 -3 24 0 31 11 30 9 -1 15 5 13 13 -3
12 -1 12 14 1 14 -13 16 -12 12 5 -2 14 -12 20 -33 21 -17 0 -29 5 -28 10 1 6
-8 11 -19 11 -25 2 -65 38 -84 75 -13 24 -12 27 1 22 8 -4 15 -16 15 -27 l0
-21 20 22 c11 12 20 33 20 47 0 22 3 24 19 15 13 -6 18 -18 17 -35z m-220 -92
c8 -11 13 -13 14 -5 0 6 7 12 16 12 8 0 12 -4 9 -10 -3 -5 1 -11 9 -11 25 -2
89 -27 73 -28 -4 -1 2 -17 12 -37 27 -51 10 -89 -21 -46 -7 10 -21 21 -31 25
-10 4 -15 11 -12 17 4 6 -5 5 -20 -2 -19 -9 -28 -9 -37 0 -7 7 -22 12 -34 12
-34 0 -49 75 -16 83 9 3 19 5 21 6 2 0 10 -7 17 -16z m1318 -168 c13 -14 28
-25 35 -25 14 0 14 -22 -1 -55 -12 -27 -27 -32 -45 -14 -7 7 -18 1 -37 -21
-14 -17 -26 -36 -26 -42 0 -5 -5 -8 -12 -6 -19 7 -56 -44 -56 -75 0 -16 -7
-36 -15 -45 -15 -14 -17 -14 -22 1 -5 13 -12 14 -32 6 -31 -12 -35 -9 -37 31
-1 17 -7 35 -14 39 -7 4 -12 12 -11 17 1 5 -1 17 -6 27 -9 22 14 70 31 63 18
-7 25 5 13 21 -6 7 -9 14 -5 14 3 1 9 2 14 3 4 1 19 10 34 19 14 10 32 17 40
16 24 -4 73 14 86 33 18 25 39 23 66 -7z m-697 -290 c15 3 31 12 35 18 5 8 8
6 8 -5 0 -10 -4 -18 -10 -18 -5 0 -10 -7 -10 -15 0 -8 6 -15 13 -15 9 0 9 -2
-1 -9 -11 -6 -10 -10 5 -16 10 -5 24 -7 32 -6 7 1 10 -2 7 -7 -3 -5 2 -20 12
-33 9 -13 15 -34 14 -45 -4 -26 8 -36 28 -24 12 7 12 11 -1 26 -13 16 -12 16
11 5 l25 -12 -25 20 c-19 15 -24 27 -22 52 2 19 0 29 -6 25 -6 -3 -13 -2 -17
4 -4 6 5 10 21 10 30 0 53 -24 54 -56 0 -12 7 -27 15 -34 12 -10 15 -9 15 6 0
15 2 16 13 5 10 -10 8 -16 -10 -28 -18 -12 -20 -18 -11 -32 8 -13 8 -27 0 -50
-14 -40 -5 -91 21 -111 18 -15 18 -16 -4 -17 -35 -3 -43 -18 -25 -44 14 -21
16 -21 16 -5 0 11 3 16 6 13 10 -10 -17 -68 -30 -64 -6 2 -11 16 -11 30 -1 15
-7 33 -14 39 -11 11 -11 9 -2 -9 8 -16 8 -23 1 -23 -6 0 -8 -5 -4 -12 4 -6 3
-8 -4 -4 -6 3 -12 -2 -15 -11 -2 -10 -4 0 -4 22 -1 22 4 46 9 53 8 9 7 11 -3
9 -8 -2 -10 -2 -6 1 8 4 28 45 32 68 6 28 -12 35 -47 18 -27 -12 -34 -22 -32
-39 1 -17 -2 -22 -12 -18 -8 3 -11 9 -8 14 3 5 0 9 -6 9 -6 0 -8 5 -4 12 5 7
3 8 -6 3 -7 -4 -15 -3 -19 1 -9 14 -81 44 -116 48 -16 3 -42 7 -57 10 -30 7
-36 -2 -16 -22 7 -7 9 -12 5 -12 -4 0 -10 0 -14 0 -5 0 -9 5 -9 10 -1 6 -2 14
-3 19 0 5 -12 11 -26 13 -20 4 -23 2 -15 -7 7 -9 7 -15 1 -19 -5 -4 -13 -1
-16 5 -4 5 -13 8 -21 5 -8 -3 -14 0 -14 6 0 6 -3 8 -7 5 -3 -4 -1 -18 7 -31 7
-14 10 -34 7 -46 -4 -17 -2 -20 14 -15 10 3 28 8 39 11 11 3 20 1 20 -4 0 -5
-9 -12 -20 -15 -17 -4 -19 -9 -10 -31 5 -14 6 -26 1 -26 -5 0 -11 13 -14 30
-5 23 -10 28 -23 23 -16 -6 -16 -7 2 -14 18 -6 18 -7 2 -14 -10 -4 -16 -11
-13 -15 3 -4 -4 -10 -15 -13 -11 -3 -20 -1 -20 4 0 4 -8 6 -17 3 -10 -2 -8 1
5 7 12 7 22 21 22 31 0 15 -6 18 -28 15 -21 -3 -32 1 -40 14 -7 11 -20 19 -28
19 -9 0 -23 8 -30 18 -9 11 -13 13 -14 4 0 -10 -9 -8 -33 7 -27 16 -40 19 -65
12 -17 -5 -40 -7 -50 -4 -11 2 -23 0 -26 -6 -5 -7 0 -9 11 -5 10 3 5 -2 -10
-11 -16 -9 -31 -14 -35 -11 -10 10 49 65 64 59 8 -3 11 -9 8 -14 -8 -13 3 -11
39 8 41 22 72 26 56 7 -9 -11 -8 -14 5 -14 20 0 21 29 1 36 -13 6 -31 41 -27
56 1 3 -13 2 -31 -3 -39 -11 -37 -11 -37 -1 0 9 55 33 88 37 12 2 22 -1 22 -6
0 -5 -7 -9 -15 -9 -17 0 -20 -25 -5 -35 6 -3 10 -2 10 2 0 5 11 10 25 11 19 1
28 -4 34 -20 l8 -23 7 23 c5 13 5 26 2 29 -3 4 -1 12 4 18 8 9 4 11 -15 7 -15
-2 -25 0 -25 7 0 6 7 11 15 11 8 0 15 4 15 9 0 4 11 7 25 6 40 -5 38 12 -2 20
-28 5 -38 3 -45 -10 -7 -12 -13 -13 -23 -5 -8 6 -21 7 -36 2 -42 -16 -107 -23
-114 -12 -3 5 -2 10 3 10 5 0 12 14 16 30 3 17 10 30 16 30 6 0 8 -4 5 -10
-10 -16 17 -12 36 6 10 9 23 14 30 12 6 -2 -6 -17 -27 -33 -20 -16 -34 -24
-31 -18 4 6 0 13 -8 17 -10 4 -15 -1 -15 -14 0 -25 20 -25 83 -4 31 10 47 22
47 32 0 11 3 13 8 6 4 -6 16 -13 27 -17 18 -6 18 -5 3 5 -15 11 -11 14 30 26
26 7 56 13 67 13 11 0 22 4 25 8 8 14 70 24 70 12 0 -6 -5 -11 -11 -11 -5 0
-8 -3 -6 -7 3 -5 -2 -15 -11 -22 -14 -13 -15 -12 -10 7 7 27 -2 28 -29 2 -15
-13 -23 -16 -26 -7 -3 9 -9 9 -28 0 -21 -10 -22 -12 -4 -12 17 -1 18 -3 5 -12
-11 -7 -12 -12 -3 -15 7 -3 10 -11 7 -18 -6 -17 97 -9 108 8 5 8 8 7 8 -2 0
-10 5 -10 20 -2 16 9 18 8 14 -5 -7 -16 8 -19 41 -6 26 10 47 -9 31 -28 -9
-12 -8 -12 11 -3 30 17 43 15 36 -5 -4 -10 -2 -14 5 -9 6 3 13 2 17 -4 3 -5
17 -10 30 -10 13 0 27 -5 30 -10 5 -8 11 -7 21 1 8 6 14 8 14 4 0 -4 7 -2 16
6 14 12 14 14 -6 21 -12 5 -30 3 -42 -3 -11 -6 -22 -8 -26 -5 -3 3 0 6 6 6 9
0 8 11 -3 37 -14 33 -14 38 -1 45 21 12 8 41 -15 35 -11 -3 -27 5 -41 22 -22
24 -22 25 -1 7 16 -13 30 -16 50 -11z m677 -297 c50 -34 94 -67 98 -72 5 -7
-8 -13 -35 -17 -23 -3 -44 -3 -47 2 -3 5 -51 11 -105 13 -55 3 -101 10 -103
15 -5 16 68 121 85 121 9 0 57 -28 107 -62z m-793 -16 c-6 -10 -6 -24 -1 -32
5 -8 6 -18 4 -22 -3 -4 3 -7 13 -5 19 3 27 13 20 25 -2 4 -2 1 -1 -5 5 -20 -4
-15 -17 8 -10 20 -9 21 14 15 20 -5 27 -2 32 14 3 11 11 20 18 20 8 0 8 -3 -1
-12 -7 -7 -12 -19 -12 -27 0 -12 3 -12 12 -3 7 7 15 12 19 12 9 0 6 -27 -4
-36 -11 -12 -8 -34 5 -34 6 0 8 3 5 6 -3 4 -2 16 4 26 8 14 14 17 21 10 6 -6
17 -8 24 -5 15 5 20 -18 7 -31 -5 -4 -8 -11 -8 -14 -2 -25 -31 -82 -42 -82 -7
0 -12 5 -10 11 1 6 -3 13 -10 16 -7 2 -10 -3 -8 -14 2 -10 4 -22 4 -26 1 -5 6
-5 11 -2 16 10 12 -1 -8 -18 -17 -15 -18 -15 -20 11 -3 56 -6 67 -19 80 -7 7
-13 10 -13 6 0 -3 -6 -1 -14 5 -10 9 -15 8 -19 -2 -7 -19 8 -43 17 -28 4 6 12
9 17 6 12 -8 12 -55 -1 -55 -5 0 -7 -7 -4 -15 4 -8 10 -12 15 -9 5 3 9 0 9 -5
0 -14 -17 -14 -25 -1 -4 6 -12 7 -18 3 -19 -12 -37 -12 -37 -1 0 6 7 8 15 4 9
-3 15 0 15 9 0 8 -7 15 -16 15 -8 0 -13 4 -10 9 3 5 -2 8 -11 7 -9 0 -18 5
-21 13 -3 9 2 11 19 7 13 -3 18 -3 12 0 -7 3 -13 10 -13 15 0 6 5 7 12 3 7 -5
8 -3 4 5 -6 9 -12 9 -24 -2 -15 -14 -99 -20 -86 -7 3 3 9 5 12 6 25 3 62 18
62 25 0 4 9 6 20 4 12 -2 18 0 15 6 -4 5 -10 7 -15 4 -4 -3 -13 2 -19 9 -10
12 -8 13 10 9 14 -4 20 -2 16 5 -4 5 -1 12 5 15 10 3 10 7 0 19 -15 18 -6 48
14 48 11 0 12 -5 5 -18z m422 -282 c26 0 38 -38 26 -86 -11 -41 -10 -47 10
-68 12 -13 36 -27 53 -30 17 -3 43 -19 58 -35 20 -23 45 -35 113 -52 130 -32
113 -52 -58 -63 l-100 -7 -30 57 c-16 32 -52 96 -79 143 -27 47 -52 98 -56
113 -7 23 -5 28 18 36 15 5 29 5 30 1 2 -5 9 -9 15 -9z m-1203 -100 c12 -16
28 -30 36 -30 18 0 18 -29 0 -36 -8 -3 -19 -18 -26 -34 -10 -25 -9 -31 9 -49
12 -12 26 -21 31 -21 6 0 10 -8 9 -17 0 -11 -3 -13 -6 -5 -8 19 -30 14 -36 -9
-5 -17 -9 -19 -26 -10 -11 6 -23 20 -26 31 -3 11 -11 20 -16 20 -5 0 -9 7 -9
15 0 13 -3 13 -20 3 -22 -14 -34 -6 -45 30 -5 19 -2 25 14 29 12 3 21 9 21 14
0 5 7 9 15 9 22 0 18 17 -6 23 -18 5 -19 8 -8 20 15 16 34 12 24 -4 -4 -5 -4
-9 -1 -9 2 0 13 -3 23 -7 17 -7 17 -6 1 19 -12 19 -14 28 -5 37 17 17 24 14
47 -19z m1065 -50 c22 -24 35 -26 35 -4 0 22 24 12 29 -12 2 -10 12 -30 22
-43 25 -32 24 -45 -3 -38 -22 5 -22 5 -3 -6 11 -7 34 -28 53 -47 32 -34 32
-35 12 -44 -14 -7 -32 -6 -51 1 -20 8 -27 8 -23 1 5 -7 -1 -9 -14 -6 -12 4
-22 2 -22 -3 0 -5 -14 -9 -30 -9 -18 0 -33 -6 -36 -15 -4 -8 -11 -15 -17 -15
-6 0 -7 3 -4 7 8 7 -11 33 -25 33 -5 0 -6 -6 -1 -12 15 -25 10 -34 -17 -30
-23 3 -26 8 -22 30 3 15 10 30 16 35 7 4 8 10 1 15 -9 6 -10 18 -6 71 1 19 40
7 98 -29 26 -17 52 -30 57 -30 6 0 2 6 -9 12 -34 19 -65 51 -65 67 0 9 3 12 8
6 4 -5 18 -11 32 -13 23 -2 23 -1 -8 18 -18 11 -36 20 -40 20 -4 0 -13 9 -19
20 -11 16 -10 21 5 29 24 14 26 14 47 -9z m-527 -310 c-2 -22 6 -30 28 -30 16
0 23 -4 18 -12 -4 -7 -3 -8 4 -4 16 10 -7 46 -25 39 -7 -3 -13 0 -13 6 0 17
28 13 39 -6 6 -10 11 -14 11 -9 0 5 8 2 17 -5 11 -9 14 -10 9 -2 -5 9 0 12 18
11 28 -2 34 -13 14 -21 -8 -3 -7 -6 4 -6 9 -1 20 4 23 9 3 6 15 10 26 10 11 0
18 -4 15 -8 -6 -10 25 -9 42 2 7 4 12 1 12 -9 0 -8 6 -18 14 -21 8 -3 11 -15
8 -31 -3 -15 -1 -24 5 -20 5 3 9 -3 8 -14 -2 -23 -24 -41 -40 -32 -5 4 -2 -3
8 -14 25 -29 21 -36 -18 -30 -21 3 -33 2 -30 -4 4 -5 1 -9 -4 -9 -17 0 -13 32
7 46 16 12 16 13 0 14 -9 0 -20 -9 -23 -20 -8 -26 -31 -26 -38 0 -3 12 1 24
11 30 16 9 16 9 1 10 -9 0 -19 7 -23 15 -6 18 -1 19 25 5 13 -7 19 -7 19 0 0
5 -6 10 -14 10 -8 0 -28 11 -44 24 -20 17 -29 21 -29 11 0 -8 4 -12 8 -10 4 3
9 -2 13 -10 8 -22 -48 -20 -65 2 -12 15 -12 16 4 10 11 -4 16 -3 12 3 -3 6
-17 7 -31 4 -18 -5 -24 -2 -24 10 0 9 -15 20 -40 27 -53 16 -54 40 -1 37 22
-2 39 -5 39 -8z"/>
<path d="M2338 3223 c-21 -2 -38 -8 -38 -14 0 -5 -8 -9 -17 -9 -39 0 -179 -76
-220 -120 -52 -54 -57 -73 -7 -25 47 46 158 111 209 123 73 17 199 14 253 -6
72 -28 137 -76 180 -135 40 -54 60 -93 42 -82 -6 3 -10 -1 -10 -9 0 -19 17
-30 22 -14 3 7 10 -9 18 -35 21 -77 9 -223 -24 -291 -43 -87 -113 -157 -202
-201 -161 -78 -311 -65 -450 41 -52 40 -58 32 -11 -13 63 -62 205 -106 309
-98 198 16 372 174 414 377 14 65 13 79 -2 152 -22 102 -50 159 -113 228 -57
62 -128 104 -209 124 -57 13 -74 14 -144 7z"/>
<path d="M3709 4838 c-23 -40 -48 -83 -55 -95 -22 -36 -18 -62 13 -69 33 -9
75 13 136 72 46 43 127 144 127 157 0 4 -40 7 -90 7 l-89 0 -42 -72z"/>
<path d="M1226 4840 c-122 -37 -142 -211 -32 -279 48 -30 93 -27 156 12 62 37
85 83 74 145 -9 46 -67 109 -112 122 -42 11 -47 11 -86 0z"/>
<path d="M0 4680 l0 -125 43 -50 c93 -107 219 -284 257 -360 22 -44 39 -74 40
-67 0 19 20 14 20 -5 0 -15 2 -16 10 -3 5 8 10 10 10 4 0 -14 -25 -36 -32 -28
-3 3 -8 -6 -12 -20 -5 -19 -16 -28 -49 -36 -133 -34 -301 -114 -276 -132 11
-7 11 -11 1 -15 -17 -7 -15 -26 3 -20 8 4 17 2 20 -3 9 -15 35 1 35 22 0 15 3
18 13 11 23 -19 44 -11 39 14 -2 13 1 23 7 23 6 0 11 -5 11 -10 0 -6 6 -10 13
-9 6 1 20 -1 30 -6 11 -5 23 -3 30 5 10 10 8 12 -7 6 -11 -4 -22 -3 -25 2 -3
5 -21 13 -38 17 -29 6 -33 4 -33 -14 0 -12 -4 -21 -10 -21 -5 0 -10 5 -10 11
0 6 -9 8 -21 4 -15 -5 -20 -3 -17 6 2 7 12 13 23 15 10 1 21 7 24 12 7 12 59
13 67 1 2 -4 11 -6 19 -2 8 3 15 0 15 -6 0 -6 7 -11 15 -11 8 0 15 7 15 15 0
8 6 15 14 15 9 0 17 -17 21 -52 7 -48 8 -51 22 -32 13 17 14 16 9 -21 -4 -25
-3 -33 2 -21 8 19 9 19 16 1 4 -11 2 -22 -6 -27 -9 -5 -10 -8 -1 -8 6 0 15 4
18 10 8 13 45 -11 45 -30 -1 -12 -3 -12 -14 2 -7 10 -16 15 -19 12 -3 -4 13
-24 35 -45 34 -32 44 -36 56 -26 13 10 14 8 9 -18 -7 -28 -6 -29 8 -11 8 11
15 16 15 10 0 -5 5 -2 10 6 5 8 10 10 10 5 0 -6 -7 -21 -16 -33 -8 -12 -11
-22 -5 -22 5 0 12 6 14 13 3 7 6 5 6 -5 1 -10 -4 -18 -11 -18 -6 0 -8 -3 -5
-7 4 -3 18 4 32 17 17 16 25 19 25 9 -1 -28 -25 -47 -53 -42 -15 3 -27 8 -27
12 0 3 -16 7 -36 8 -28 1 -34 -1 -30 -13 4 -10 -3 -14 -24 -14 -17 0 -30 5
-30 11 0 5 -5 7 -10 4 -6 -3 -10 0 -10 7 0 8 -9 21 -20 31 -20 17 -21 16 -29
-5 -6 -16 -10 -18 -16 -8 -5 8 -4 15 3 18 6 2 8 10 5 18 -8 20 14 17 36 -5 11
-11 22 -17 25 -14 3 4 6 -1 6 -11 0 -9 5 -14 10 -11 6 3 10 2 10 -4 0 -6 8 -7
17 -4 14 5 14 8 3 11 -26 9 -42 32 -37 52 3 13 0 20 -8 20 -9 0 -11 -8 -7 -22
4 -15 2 -19 -7 -13 -7 4 -11 17 -9 30 3 14 -2 26 -14 34 -16 10 -20 8 -28 -14
-6 -15 -10 -31 -10 -36 0 -5 -5 -9 -11 -9 -7 0 -9 10 -5 25 4 17 2 25 -6 25
-7 0 -25 7 -40 14 -27 14 -46 6 -33 -14 3 -5 1 -10 -4 -10 -22 0 -10 -18 15
-24 21 -6 24 -10 14 -21 -6 -8 -9 -19 -5 -25 3 -5 0 -10 -8 -10 -10 0 -13 7
-10 20 4 14 0 20 -10 20 -8 0 -22 3 -31 6 -9 3 -16 1 -16 -5 0 -6 8 -11 18
-11 14 0 19 -8 19 -30 0 -16 -4 -30 -9 -30 -4 0 -8 10 -8 23 0 16 -6 22 -25
23 -18 2 -25 -3 -25 -17 0 -21 -15 -25 -26 -8 -3 6 -1 15 6 19 7 4 8 10 3 13
-14 9 -28 -6 -29 -30 0 -16 5 -23 17 -23 21 0 34 -16 20 -24 -5 -4 -11 -1 -13
6 -2 6 -10 8 -17 4 -9 -6 -9 -11 -1 -21 8 -10 8 -15 -1 -20 -8 -6 -7 -10 2
-16 12 -8 12 -10 1 -18 -11 -7 -11 -9 2 -14 9 -4 13 -13 10 -22 -5 -11 1 -15
22 -15 37 0 24 -11 -15 -12 -34 -1 -44 -18 -11 -18 11 0 20 -4 20 -9 0 -5 -8
-8 -17 -7 -17 1 -18 -27 -20 -446 -2 -283 1 -449 7 -453 7 -4 6 -14 -1 -27 -7
-13 -7 -18 -1 -14 17 10 23 -11 7 -24 -9 -7 -14 -29 -13 -55 0 -39 4 -44 37
-60 47 -23 140 -55 159 -55 12 0 12 3 2 15 -7 9 -21 13 -31 10 -9 -3 -20 -1
-24 5 -3 5 -15 10 -25 10 -10 0 -23 8 -29 18 -5 9 -12 16 -15 15 -15 -7 -47
-2 -41 6 3 5 1 12 -5 16 -17 10 -11 25 9 25 11 0 22 4 26 10 3 5 12 7 21 3 12
-4 14 0 8 21 -4 17 -2 26 6 26 7 0 10 -7 6 -15 -3 -8 -2 -15 3 -15 5 0 11 -8
15 -17 3 -10 9 -24 12 -31 3 -7 -4 -16 -18 -22 -22 -10 -22 -10 4 -5 26 5 32
-1 30 -26 -2 -13 34 -5 45 10 11 14 12 13 13 -6 0 -13 5 -23 11 -23 6 0 8 -9
4 -20 -5 -16 -2 -20 19 -20 17 0 26 5 26 16 0 10 6 14 14 11 8 -3 17 1 20 9 7
19 24 18 29 -4 4 -14 5 -14 6 -1 0 9 -6 22 -14 29 -12 10 -16 9 -21 -4 -8 -20
-24 -21 -24 -1 0 8 -4 15 -10 15 -5 0 -10 9 -10 21 0 11 -4 17 -10 14 -5 -3
-10 3 -10 14 0 12 -5 21 -11 21 -6 0 -9 7 -6 15 4 8 2 17 -3 20 -13 8 -13 25
0 25 6 0 10 -7 10 -15 0 -8 5 -15 10 -15 6 0 10 -6 10 -14 0 -8 5 -18 10 -21
14 -9 1 47 -13 56 -5 4 -6 12 -2 19 5 8 13 1 23 -21 9 -17 18 -27 20 -21 2 6
-2 21 -8 32 -13 24 -4 42 10 20 5 -8 12 -12 15 -9 11 12 8 73 -12 229 -10 73
-11 80 -13 115 -1 17 -4 24 -7 17 -2 -6 -9 -9 -15 -6 -7 5 -8 -6 -3 -32 4 -21
8 -68 10 -104 1 -36 6 -73 10 -83 6 -14 -2 -29 -31 -58 -36 -37 -42 -39 -79
-33 -22 3 -42 9 -45 13 -3 3 -18 13 -33 21 l-28 14 6 91 c4 49 14 112 22 138
11 32 14 68 10 110 -7 80 10 144 45 170 25 19 32 19 79 9 l52 -12 52 40 c29
23 63 60 76 85 26 50 39 57 39 22 0 -24 33 -124 55 -168 16 -29 11 -41 -13
-32 -13 6 -14 -2 -9 -57 4 -35 7 -76 7 -91 0 -24 4 -29 24 -29 14 0 28 -4 31
-10 3 -5 22 -10 41 -10 19 0 34 -2 34 -4 0 -16 -28 -52 -38 -48 -6 2 -12 -3
-12 -12 0 -20 -19 -21 -26 -1 -4 8 -11 15 -16 15 -6 0 -8 -7 -4 -15 3 -8 0
-14 -7 -12 -15 3 -13 -86 4 -156 10 -44 10 -49 -11 -67 -19 -16 -39 -20 -104
-21 -45 0 -75 -3 -68 -6 6 -2 12 -11 12 -19 0 -8 5 -14 10 -14 6 0 10 -7 10
-15 0 -8 -5 -15 -11 -15 -5 0 -7 -5 -3 -11 4 -8 9 -7 16 2 7 11 11 11 15 2 2
-7 12 -13 21 -12 11 0 12 2 4 6 -14 6 -16 43 -2 43 6 0 10 -5 10 -11 0 -14 26
-39 40 -39 7 0 5 6 -4 16 -22 21 -20 34 4 34 11 0 20 6 20 13 0 8 3 8 9 -2 7
-11 10 -10 14 5 4 18 5 18 6 -1 2 -26 31 51 31 83 0 12 5 22 11 22 6 0 3 7 -5
16 -18 17 -22 39 -6 29 6 -3 10 4 10 17 0 18 2 20 10 8 8 -12 10 -12 15 2 4
10 14 14 26 11 12 -3 19 0 19 8 0 12 2 12 9 1 4 -8 12 -13 17 -12 5 1 10 -3
12 -9 2 -6 -1 -11 -7 -11 -6 0 -8 -6 -5 -13 2 -7 -4 -22 -14 -33 -10 -10 -17
-25 -14 -32 2 -6 -1 -12 -7 -12 -6 0 -11 -7 -11 -15 0 -23 -35 -87 -59 -109
-12 -11 -21 -25 -21 -33 0 -7 -7 -13 -15 -13 -8 0 -15 -5 -15 -10 0 -6 3 -9 8
-8 8 3 12 -5 12 -24 0 -9 -4 -8 -10 2 -8 12 -10 8 -11 -15 -3 -49 -4 -53 -11
-61 -4 -4 -19 1 -33 10 -15 10 -32 15 -38 12 -7 -2 -4 -5 6 -5 9 -1 17 -5 17
-11 0 -16 -32 -12 -52 7 -18 16 -18 16 -12 0 7 -19 -15 -24 -32 -7 -7 7 -17 5
-30 -5 -17 -13 -9 -15 81 -16 55 -1 84 -4 65 -6 -61 -6 -77 -12 -77 -29 0 -12
7 -14 26 -10 50 12 56 11 55 -9 -2 -39 -55 -238 -79 -297 -23 -58 -24 -60 -5
-55 26 7 26 -10 0 -18 -11 -3 -20 -9 -20 -13 0 -4 -18 -18 -40 -32 -22 -14
-40 -28 -40 -32 0 -5 -9 -8 -20 -8 -11 0 -20 -4 -20 -10 0 -5 7 -10 16 -10 25
0 2 -23 -50 -49 -37 -20 -49 -33 -75 -91 -42 -89 -58 -204 -42 -282 7 -32 18
-64 25 -71 7 -7 18 -22 25 -35 6 -12 19 -22 27 -22 12 0 14 -7 9 -29 -4 -21
-2 -30 10 -35 9 -3 14 -10 10 -15 -3 -5 0 -13 6 -16 5 -4 8 -14 4 -23 -7 -19
98 -121 124 -120 9 1 34 -4 56 -10 40 -12 146 -9 167 4 7 5 8 3 4 -5 -5 -8 -3
-12 5 -10 47 6 51 -3 11 -23 -23 -11 -40 -23 -38 -26 3 -3 38 11 78 30 40 20
96 41 125 48 60 14 95 37 155 105 59 67 74 92 93 159 21 72 12 215 -13 224 -7
2 -10 7 -7 11 10 17 -47 170 -83 221 -51 74 -185 164 -263 179 -25 4 -43 12
-41 19 1 7 -8 12 -20 12 -52 1 -52 13 2 111 29 52 63 105 76 120 13 14 24 37
24 51 0 29 43 137 70 178 10 14 15 31 13 38 -3 6 2 12 11 12 10 0 13 6 10 15
-4 8 -1 15 5 15 6 0 11 9 11 21 0 15 5 19 15 15 12 -4 14 0 9 19 -5 21 -3 24
11 19 14 -6 16 -3 10 16 -4 13 -3 20 2 17 5 -3 15 14 22 39 7 24 17 44 21 44
4 0 7 8 6 17 0 10 4 18 11 18 6 0 15 4 20 8 4 5 2 7 -6 5 -7 -2 -16 3 -18 10
-3 7 -1 12 4 11 4 -1 17 -1 27 0 18 1 18 2 3 14 -17 12 -14 57 4 57 5 0 9 11
9 25 0 15 -6 25 -14 25 -8 0 -18 10 -21 21 -6 18 -12 20 -44 15 -20 -3 -42 -6
-48 -6 -7 0 -13 -7 -13 -16 0 -12 -3 -14 -13 -6 -8 7 -18 7 -27 2 -10 -7 -11
-10 -2 -10 6 0 12 -4 12 -9 0 -5 -11 -8 -25 -5 -19 3 -23 1 -18 -12 5 -13 2
-15 -18 -9 -23 7 -23 7 -4 -8 11 -8 23 -13 27 -11 5 3 8 0 8 -5 0 -14 -3 -14
-35 1 -26 12 -33 32 -14 43 6 4 8 13 5 20 -2 7 0 17 5 22 5 5 14 24 19 42 7
25 6 30 -3 23 -31 -25 -62 33 -35 66 11 13 14 11 18 -13 3 -16 10 -30 16 -32
8 -3 9 8 4 37 -7 38 -5 44 13 41 4 0 6 2 6 6 -4 27 5 43 36 57 19 9 35 22 35
27 0 6 14 9 33 6 30 -4 74 13 62 24 -2 3 0 22 5 43 13 59 -23 151 -80 204 -31
30 -141 98 -152 95 -12 -4 -10 3 10 35 10 17 23 27 32 24 8 -2 1 11 -16 29
-17 19 -34 43 -38 53 -7 20 -7 20 16 0 12 -10 29 -26 36 -34 12 -13 13 -13 6
0 -5 11 -2 10 13 -3 18 -15 22 -16 33 -3 6 9 15 15 18 14 4 0 16 0 27 1 18 1
17 4 -8 22 -30 23 -35 39 -11 39 8 0 13 -4 10 -9 -8 -12 23 -23 40 -13 10 6
-5 27 -61 82 -42 41 -96 105 -121 143 -26 38 -50 64 -56 61 -7 -4 -8 -2 -4 5
8 12 -16 50 -81 128 -32 38 -55 55 -84 63 -27 8 -39 16 -39 29 0 10 -41 80
-90 157 -93 143 -213 368 -255 477 l-24 62 -1 -125z m535 -1131 c6 -4 28 -9
50 -11 33 -2 41 -8 49 -31 8 -21 7 -30 -2 -36 -7 -4 -12 -14 -10 -22 2 -11
-11 -14 -58 -14 -52 0 -65 -4 -80 -23 -24 -29 -44 -22 -77 26 -41 60 -40 95 6
110 36 12 107 13 122 1z m98 -154 c12 -8 18 -15 13 -15 -5 0 3 -9 17 -20 14
-11 29 -20 35 -20 5 0 26 -16 46 -35 40 -37 66 -89 66 -131 0 -23 -3 -25 -26
-20 -15 4 -45 24 -67 46 -35 33 -39 41 -28 54 12 14 11 16 -6 16 -10 0 -25 -6
-31 -12 -17 -17 -32 5 -24 35 4 14 1 18 -7 13 -18 -11 -42 14 -36 35 5 14 1
19 -14 19 -12 0 -21 -1 -21 -3 0 -1 4 -17 9 -35 l10 -33 -32 20 c-39 25 -46
48 -17 59 12 4 21 11 21 15 -2 20 2 23 34 25 20 2 46 -4 58 -13z m-38 -171
c17 -12 53 -33 81 -47 57 -29 72 -50 46 -69 -9 -7 -23 -24 -30 -38 -12 -23
-19 -26 -73 -25 -33 0 -59 -4 -59 -10 -1 -5 -10 1 -20 14 -11 13 -20 20 -20
16 0 -3 -6 0 -13 7 -12 12 -31 64 -25 70 1 2 -4 14 -11 27 -14 25 -5 54 27 93
16 19 23 16 97 -38z"/>
<path d="M6176 4630 c-14 -4 -16 -9 -8 -14 7 -4 12 -12 12 -18 0 -7 -4 -7 -13
0 -11 9 -18 -3 -35 -57 -12 -38 -20 -77 -16 -87 4 -14 3 -16 -4 -5 -8 11 -11
10 -16 -6 -4 -11 -4 -27 0 -36 3 -10 -4 -26 -20 -42 -28 -28 -111 -185 -99
-185 5 0 1 -5 -7 -10 -8 -5 -10 -10 -4 -10 13 0 122 177 140 225 6 17 14 29
17 28 16 -7 26 -2 31 15 3 9 33 44 66 77 33 33 67 72 75 86 12 23 12 26 -6 37
-26 17 -54 15 -70 -4 -11 -14 -14 -14 -19 -1 -3 9 -12 12 -24 7z"/>
<path d="M1070 4329 c0 -18 56 -139 87 -187 65 -104 282 -233 387 -231 28 0
27 2 -17 16 -34 11 -47 21 -45 32 4 18 -25 45 -61 56 -25 8 -143 74 -151 85
-3 4 -20 15 -37 25 -18 11 -33 23 -33 27 0 4 -6 8 -12 8 -7 0 -31 31 -52 68
-47 79 -66 109 -66 101z"/>
<path d="M7010 4160 c-11 -7 -1 -10 35 -11 28 -1 41 -3 30 -6 -45 -11 -142
-46 -199 -72 -69 -31 -131 -94 -166 -168 -23 -50 -49 -169 -51 -236 -1 -34 -4
-28 -13 33 l-12 75 -10 -45 c-28 -130 25 -280 138 -392 114 -113 175 -134 383
-132 84 0 122 5 160 20 l50 20 0 377 0 377 -26 26 c-15 15 -55 41 -90 58 -44
22 -63 38 -61 49 5 29 -131 51 -168 27z"/>
<path d="M556 3989 c3 -6 17 -8 31 -4 17 4 32 0 43 -10 12 -11 20 -13 25 -5 3
5 11 8 16 5 15 -10 10 -25 -8 -25 -11 0 -14 -3 -7 -8 6 -4 14 -14 17 -22 4
-10 6 -8 6 8 1 12 6 22 12 22 8 0 9 -11 5 -32 -4 -22 -3 -28 3 -19 15 24 54
24 69 1 15 -25 8 -42 -15 -33 -11 4 -14 2 -11 -8 3 -9 16 -13 33 -11 19 2 26
-1 22 -10 -2 -7 -12 -12 -21 -12 -17 2 -22 -11 -7 -21 5 -3 12 -1 16 5 9 15
25 12 25 -5 0 -9 -9 -15 -22 -15 -18 0 -20 -2 -8 -9 8 -6 19 -7 24 -3 6 3 20
7 33 8 28 3 31 -16 4 -23 -19 -5 -19 -37 1 -49 6 -4 8 1 4 14 -5 13 -1 22 10
26 13 5 15 2 11 -14 -3 -12 0 -20 8 -20 8 0 11 8 8 21 -4 16 -2 20 8 17 8 -3
13 -12 11 -22 -2 -13 5 -16 38 -16 22 0 40 -4 40 -9 0 -13 -16 -22 -24 -14 -3
3 -18 7 -33 9 -16 1 -23 0 -17 -2 5 -3 9 -23 8 -45 -2 -39 -1 -40 13 -19 12
17 18 19 29 9 10 -8 14 -8 14 0 0 11 -13 15 -39 12 -7 -2 -11 4 -9 11 5 14 96
20 104 6 2 -3 -6 -14 -18 -23 l-23 -17 24 7 c17 5 21 4 16 -5 -5 -9 -2 -10 12
-6 29 9 53 -3 54 -28 1 -16 2 -17 6 -3 2 9 11 17 19 17 17 0 18 -12 2 -29 -7
-8 -8 -11 -2 -8 6 4 20 -3 32 -13 26 -24 32 -25 32 -4 0 9 -9 18 -20 21 -21 5
-28 23 -10 23 7 0 7 6 0 19 -7 13 -16 17 -31 14 -18 -5 -20 -3 -14 16 5 18 2
24 -14 28 -13 3 -20 12 -19 22 2 9 -7 20 -20 26 -12 5 -20 15 -18 22 6 16 -20
37 -35 27 -8 -5 -10 -2 -7 8 4 9 -3 23 -14 33 -17 14 -22 15 -30 4 -8 -11 -9
-10 -4 3 7 22 -26 46 -136 98 -117 56 -273 92 -252 59z"/>
<path d="M5684 3835 c-14 -14 -29 -25 -34 -25 -6 0 -10 -8 -10 -19 0 -10 -11
-30 -25 -45 -30 -33 -45 -59 -45 -82 0 -13 3 -14 15 -4 8 7 15 18 15 24 0 7 6
18 13 25 6 6 13 16 13 21 1 6 2 14 3 18 0 4 12 9 25 10 17 1 25 -5 29 -20 4
-13 11 -19 21 -15 30 12 26 -13 -9 -64 -35 -51 -42 -69 -27 -69 10 1 52 69 52
86 0 10 9 13 34 9 32 -4 35 -1 42 27 5 24 2 35 -12 46 -17 13 -17 14 -1 9 18
-7 21 -3 31 45 5 23 3 25 -16 20 -14 -3 -19 -2 -14 6 4 7 17 13 29 13 18 1 18
2 4 6 -10 3 -31 0 -47 -6 -18 -6 -30 -6 -30 0 0 18 -31 9 -56 -16z"/>
<path d="M5525 3363 c28 -14 58 -32 68 -41 9 -8 17 -11 17 -6 0 5 7 -1 15 -13
8 -12 30 -25 48 -28 17 -4 43 -15 57 -25 14 -9 37 -20 52 -24 33 -7 56 -47 64
-109 5 -35 1 -53 -20 -93 -14 -27 -26 -54 -26 -60 0 -7 -7 -14 -15 -18 -9 -3
-12 -12 -8 -22 5 -13 3 -15 -7 -9 -8 5 -11 4 -6 -3 4 -6 2 -19 -3 -29 -13 -25
-23 -55 -26 -76 -1 -11 -6 -22 -11 -25 -18 -13 -54 -79 -54 -100 0 -38 -11
-52 -44 -52 -26 -1 -28 -2 -13 -11 9 -5 17 -18 17 -27 0 -12 -3 -13 -8 -5 -5
8 -8 -1 -8 -21 0 -34 -42 -136 -56 -136 -5 0 -8 -7 -8 -15 0 -22 -50 -117 -72
-137 -14 -12 -16 -17 -6 -21 10 -4 10 -6 0 -6 -13 -1 -30 -37 -39 -81 -2 -14
-11 -35 -19 -47 -8 -12 -14 -27 -14 -32 0 -5 -14 -40 -32 -78 -18 -37 -33 -74
-34 -82 -2 -7 -7 -18 -13 -24 -6 -6 -11 -19 -11 -28 0 -10 -6 -24 -14 -31 -7
-8 -17 -24 -20 -36 -4 -12 -12 -22 -17 -22 -6 0 -8 -4 -4 -10 3 -5 -2 -18 -12
-29 -37 -40 -44 -51 -38 -60 7 -12 -45 -151 -57 -151 -5 0 -7 -4 -3 -9 3 -5 1
-12 -5 -16 -12 -7 -50 -88 -50 -106 0 -13 -47 -4 -68 13 -13 11 -200 104 -242
120 -51 19 -8 -5 82 -48 51 -24 104 -52 118 -62 14 -11 35 -22 48 -26 25 -8
27 -17 10 -34 -8 -8 -8 -15 0 -25 9 -10 6 -23 -9 -55 -12 -23 -25 -42 -30 -42
-4 0 -6 -6 -3 -13 3 -8 -2 -19 -10 -26 -8 -7 -13 -18 -10 -25 3 -7 -2 -18 -10
-25 -8 -7 -13 -18 -10 -25 3 -8 -1 -20 -8 -27 -14 -15 -63 -108 -63 -119 0
-12 -60 -125 -70 -132 -5 -4 -10 -15 -10 -25 0 -10 -10 -30 -23 -43 -15 -17
-19 -26 -10 -29 12 -4 68 55 68 73 0 5 29 69 63 140 35 72 88 182 117 243 30
62 57 113 62 113 4 0 8 6 8 14 0 26 18 27 59 6 22 -11 44 -20 48 -20 4 1 -13
12 -39 26 -27 13 -48 30 -48 37 0 7 8 31 19 53 44 92 180 383 200 427 95 210
141 296 156 291 17 -7 21 -35 4 -31 -6 1 -14 -4 -17 -12 -2 -8 -1 -11 4 -8 6
3 9 -35 9 -88 0 -51 2 -91 5 -88 3 2 19 32 35 66 26 54 34 62 61 65 23 2 33
-2 38 -14 12 -31 172 -1024 210 -1300 51 -371 51 -371 124 -409 32 -16 125
-65 207 -109 l150 -79 90 16 c50 9 200 36 335 62 135 25 322 59 415 76 94 16
178 32 188 35 14 5 17 18 17 85 l0 79 -37 1 c-39 1 -38 3 10 13 26 6 27 9 27
66 l0 60 -45 -2 c-25 -1 -45 -5 -45 -9 0 -3 -18 -19 -40 -34 -54 -37 -51 -49
8 -41 l48 6 -45 -48 c-54 -58 -91 -75 -91 -43 0 12 4 21 10 21 5 0 7 7 4 15
-4 10 0 15 14 15 12 0 24 4 27 10 3 6 -1 7 -10 4 -8 -4 -21 -2 -28 4 -6 5 -28
12 -47 16 -23 4 -28 3 -15 -2 16 -7 12 -10 -20 -15 -22 -4 -41 -3 -43 2 -2 6
-16 5 -33 -1 -17 -6 -89 -8 -174 -6 -80 2 -145 0 -145 -5 0 -4 -64 -6 -142 -3
-111 4 -145 9 -154 21 -6 8 -14 12 -18 8 -3 -4 -4 9 -1 29 4 21 1 39 -5 43 -5
3 -10 11 -10 16 0 6 5 7 10 4 6 -3 10 -2 10 4 0 5 -5 11 -10 13 -6 2 -13 32
-15 67 -3 35 -10 70 -16 78 -14 16 -12 18 24 27 19 4 29 2 33 -7 3 -9 15 -12
37 -8 l32 5 -30 7 c-23 5 -20 6 12 3 30 -2 48 2 65 16 l23 19 -30 2 c-30 1
-30 1 -5 9 37 12 62 12 55 0 -4 -7 2 -9 17 -5 12 3 57 12 98 21 41 9 85 18 97
21 12 3 24 13 26 22 4 14 5 13 6 -2 1 -14 5 -16 19 -8 10 5 41 12 68 16 27 3
65 10 84 15 19 5 68 17 108 26 39 9 72 20 72 24 0 14 -111 4 -157 -13 -43 -16
-43 -16 -49 8 -3 14 -10 23 -14 20 -11 -6 -35 24 -26 32 4 4 11 2 15 -6 6 -9
10 -7 14 8 3 14 0 21 -9 21 -10 0 -12 8 -8 29 5 23 2 30 -15 36 -12 3 -21 10
-21 15 0 10 -77 2 -99 -10 -10 -5 0 -10 28 -15 23 -4 45 -4 48 -1 4 3 -4 6
-17 6 -13 0 -21 3 -17 6 3 3 20 3 38 -1 37 -8 22 -25 -23 -25 -27 0 -28 -2
-28 -50 0 -50 0 -50 -33 -50 -19 0 -37 -3 -41 -7 -4 -4 -17 -9 -30 -10 -24 -3
-34 14 -41 76 -3 21 0 23 24 18 34 -7 73 2 65 14 -3 5 -17 10 -32 10 -16 1
-20 3 -10 6 9 2 33 0 53 -6 19 -5 33 -6 30 -1 -8 12 -68 21 -103 14 -17 -4
-29 -11 -26 -16 3 -5 -6 -6 -22 -2 -19 5 -25 3 -20 -4 9 -14 -30 -25 -67 -18
-15 2 -27 0 -27 -5 0 -5 -5 -9 -11 -9 -5 0 -8 4 -4 9 3 5 0 13 -6 17 -9 5 -10
-1 -6 -22 3 -17 2 -36 -2 -43 -13 -21 3 -66 23 -63 9 2 19 -5 22 -15 3 -10 9
-25 13 -33 7 -12 0 -15 -33 -15 -23 0 -54 -4 -69 -8 -19 -5 -27 -4 -22 3 3 6
-3 10 -14 10 -12 0 -21 4 -21 9 0 9 -28 6 -60 -6 -8 -4 -19 -5 -24 -4 -5 1
-22 -3 -38 -8 -37 -13 -58 -5 -58 24 0 13 -4 35 -10 50 -5 14 -26 128 -45 253
-48 303 -88 546 -131 781 -19 106 -33 199 -30 206 2 7 32 15 67 19 35 4 58 11
51 14 -6 4 8 7 31 7 49 0 311 46 315 55 1 4 17 5 35 3 26 -4 29 -2 17 7 -12 9
-7 10 23 5 29 -5 37 -3 31 6 -5 9 4 10 37 5 32 -4 40 -3 29 4 -11 8 -5 9 24 4
24 -4 37 -3 33 3 -7 11 487 98 556 97 30 0 43 3 35 8 -8 6 2 8 28 6 33 -3 40
0 41 15 2 15 -3 17 -25 13 -15 -3 -209 -35 -432 -71 -223 -36 -439 -72 -480
-80 -41 -8 -163 -28 -270 -45 -107 -18 -267 -44 -355 -60 -88 -15 -162 -25
-165 -21 -3 3 -16 8 -30 10 -14 1 -34 8 -45 13 -18 9 -17 8 3 -11 26 -26 29
-36 6 -23 -9 5 -25 7 -34 5 -10 -3 -21 0 -24 5 -8 14 4 43 15 36 5 -3 6 1 4 8
-5 12 38 113 148 348 16 36 45 99 62 140 44 103 143 322 154 341 10 18 -9 81
-33 108 -8 9 -47 32 -86 51 -38 19 -70 37 -70 42 0 4 7 5 15 2 8 -4 15 -4 15
-1 0 3 -14 10 -30 16 -22 7 -29 7 -24 0 9 -16 -29 -3 -108 37 -37 19 -73 34
-80 34 -7 -1 10 -12 37 -27z"/>
<path d="M3600 1374 c47 -25 173 -88 280 -141 107 -52 274 -134 370 -182 96
-48 191 -93 210 -101 19 -7 48 -26 63 -43 20 -21 31 -26 40 -18 9 7 28 3 66
-15 29 -14 55 -23 58 -21 2 3 -12 11 -31 18 -20 7 -36 17 -36 21 0 4 -5 8 -11
8 -6 0 -166 77 -355 170 -190 94 -346 170 -349 170 -2 0 -87 41 -189 90 -201
97 -252 117 -116 44z"/>
<path d="M2770 1017 c-9 -15 -14 -17 -20 -7 -5 8 -10 9 -14 2 -4 -6 1 -15 10
-20 11 -6 13 -11 5 -16 -6 -4 -11 -3 -11 3 0 16 -49 5 -66 -15 -14 -18 -15
-18 -9 4 4 13 2 22 -4 22 -6 0 -11 -4 -11 -9 0 -5 -3 -16 -6 -25 -4 -10 -1
-16 10 -16 10 0 13 -6 10 -15 -4 -8 -1 -15 5 -15 6 0 11 -4 11 -10 0 -5 -7 -7
-15 -4 -8 4 -15 1 -15 -5 0 -6 5 -11 11 -11 5 0 8 -4 4 -10 -3 -5 -13 -7 -23
-4 -14 5 -15 4 -2 -5 8 -6 23 -11 34 -11 14 0 16 -3 7 -13 -8 -10 -7 -17 2
-26 10 -11 7 -12 -13 -7 -24 7 -24 6 -6 -8 11 -9 24 -16 29 -16 5 0 7 -7 4
-15 -4 -8 -2 -17 4 -21 6 -3 0 -14 -13 -26 l-23 -20 23 6 c23 8 32 -8 10 -18
-7 -3 -2 -3 12 0 14 4 27 11 28 15 2 5 9 9 15 9 7 -1 2 -9 -10 -19 -30 -25
-29 -33 5 -26 15 3 20 2 12 -2 -19 -8 -40 -29 -40 -39 0 -5 5 -3 11 3 6 6 18
9 25 6 8 -3 14 0 14 6 0 6 5 11 11 11 8 0 8 -5 -1 -15 -7 -8 -19 -15 -26 -15
-8 0 -14 -5 -14 -11 0 -13 42 -1 52 15 4 6 11 7 15 2 4 -4 -2 -16 -15 -26 -20
-16 -21 -22 -10 -39 9 -15 16 -17 25 -9 10 8 18 4 32 -13 19 -24 19 -24 -2
-32 -16 -6 -18 -10 -8 -20 9 -9 14 -9 20 2 5 8 11 9 15 3 6 -10 -9 -25 -34
-35 -11 -4 -9 -6 6 -6 13 -1 25 -12 33 -35 10 -25 18 -32 32 -29 23 6 24 -3 4
-24 -19 -18 -11 -31 8 -15 8 7 17 9 21 5 4 -4 -3 -15 -16 -25 l-23 -18 24 3
c21 2 26 -4 35 -41 9 -34 14 -40 23 -31 13 13 12 13 28 -37 3 -8 9 -13 14 -10
4 3 32 -36 61 -87 29 -50 53 -93 55 -95 3 -3 115 47 115 52 0 30 -156 416
-288 714 l-116 262 -32 -2 c-19 -1 -37 -10 -44 -21z"/>
<path d="M7130 789 c0 -6 -7 -9 -15 -6 -8 4 -17 2 -20 -3 -3 -6 -15 -6 -29 0
-29 11 -40 2 -23 -18 10 -13 9 -14 -2 -7 -9 5 -12 4 -7 -3 3 -6 0 -17 -9 -25
-13 -13 -13 -16 1 -21 12 -5 13 -8 2 -20 -14 -15 -32 -11 -22 6 3 5 -8 2 -25
-6 -34 -18 -41 -29 -13 -24 9 2 22 -2 27 -10 9 -11 16 -11 40 2 40 21 62 21
45 1 -16 -19 2 -20 30 -3 15 10 22 10 32 0 18 -18 31 -15 25 7 -3 12 1 22 10
25 8 4 13 12 10 20 -8 20 4 28 20 15 10 -9 13 -8 13 4 0 9 -4 18 -10 22 -5 3
-7 12 -4 19 3 9 -7 18 -27 25 -40 14 -49 14 -49 0z"/>
<path d="M2623 654 c0 -13 3 -22 6 -20 4 3 7 -4 8 -14 2 -17 0 -18 -18 -2 -10
9 -19 22 -19 29 0 7 -4 13 -9 13 -17 0 -23 -20 -11 -35 10 -12 10 -15 -1 -15
-11 0 -11 -3 1 -11 13 -9 13 -10 0 -7 -8 3 -19 14 -25 26 -5 12 -13 22 -17 22
-7 0 -12 -32 -9 -52 2 -16 -15 -7 -27 13 -23 36 -42 -9 -44 -101 0 -13 -7 -30
-16 -37 -16 -12 -16 -13 1 -7 9 3 17 2 17 -2 0 -11 -20 -42 -20 -31 0 4 -6 2
-14 -5 -10 -9 -11 -15 -2 -20 8 -6 7 -11 -4 -18 -20 -13 -4 -13 21 0 15 9 19
7 19 -5 0 -9 -4 -13 -10 -10 -5 3 -10 2 -10 -3 0 -5 11 -15 25 -22 14 -7 23
-15 21 -17 -2 -3 -14 0 -25 7 -12 6 -21 7 -21 2 0 -5 11 -15 25 -22 14 -7 23
-15 21 -17 -2 -3 -14 0 -25 7 -12 6 -21 7 -21 2 0 -5 11 -15 25 -22 27 -14 35
-33 10 -24 -8 4 -15 1 -15 -5 0 -6 7 -11 16 -11 12 0 15 -6 10 -25 -5 -18 -2
-25 8 -25 8 0 16 -7 20 -15 7 -18 -5 -20 -22 -3 -9 9 -12 8 -12 -5 0 -9 7 -17
15 -17 8 0 15 -5 15 -11 0 -5 4 -8 9 -4 5 3 13 0 16 -6 11 -18 1 -19 -29 -4
-34 18 -36 18 -36 5 0 -5 7 -10 15 -10 8 0 15 -5 15 -11 0 -5 4 -8 9 -5 5 3
14 -1 21 -9 7 -8 16 -13 20 -10 9 6 25 -14 17 -21 -2 -2 -17 0 -33 6 -16 6
-31 12 -34 12 -3 0 -17 9 -32 19 -30 22 -38 23 -38 8 0 -5 4 -8 9 -4 6 3 14
-2 19 -11 5 -9 11 -15 13 -14 2 1 18 -4 34 -11 17 -7 32 -13 35 -14 3 -1 18
-7 33 -13 16 -7 35 -12 43 -12 8 0 14 -4 14 -9 0 -5 9 -7 20 -4 11 3 20 1 20
-4 0 -5 40 -10 89 -12 l89 -2 5 33 c6 42 3 44 -27 24 -29 -19 -46 -21 -46 -5
0 13 25 39 38 39 5 0 12 18 16 39 4 30 1 48 -13 73 -33 57 -103 258 -98 278 3
11 2 20 -2 20 -10 0 -32 71 -25 82 3 4 1 8 -3 8 -5 0 -17 18 -26 39 -21 47
-44 60 -44 25z"/>
<path d="M4777 527 c-112 -19 -173 -34 -165 -39 8 -6 -5 -7 -32 -3 -35 5 -42
4 -30 -5 12 -9 4 -10 -35 -6 -37 4 -46 3 -35 -5 11 -7 0 -9 -40 -5 -41 4 -49
3 -30 -4 20 -7 14 -9 -25 -5 -27 2 -41 1 -30 -2 15 -4 7 -9 -30 -19 -66 -17
-103 -16 -45 2 l45 13 -60 -5 c-33 -3 -100 -14 -150 -24 -49 -11 -76 -18 -58
-16 52 4 28 -11 -28 -18 -29 -4 -66 -9 -83 -12 -25 -5 -28 -3 -16 6 12 9 7 10
-20 4 -52 -10 -70 -22 -70 -47 0 -25 26 -252 35 -304 l6 -33 624 0 c344 0 625
3 625 7 0 5 -6 48 -14 98 -8 50 -22 148 -31 220 -22 168 -31 206 -50 198 -11
-3 -13 -1 -10 10 4 9 -2 17 -17 21 -31 8 -28 8 -231 -27z"/>
</g>
</svg>
